<svg width="176" height="45" viewBox="0 0 176 45" fill="none" xmlns="http://www.w3.org/2000/svg">
<g clip-path="url(#clip0_62_2981)">
<path d="M23.3333 6.02881H11.6666C9.24579 6.02881 7.29163 7.98298 7.29163 10.4038V33.7371C7.29163 36.158 9.24579 38.1121 11.6666 38.1121H23.3333C25.7541 38.1121 27.7083 36.158 27.7083 33.7371V10.4038C27.7083 7.98298 25.7541 6.02881 23.3333 6.02881ZM20.4166 35.1955H14.5833V33.7371H20.4166V35.1955ZM25.1562 30.8205H9.84371V10.4038H25.1562V30.8205Z" fill="white"/>
<path d="M48.408 29.4383C46.6373 27.337 45.752 24.8783 45.752 22.0623C45.752 19.2463 46.6373 16.7876 48.408 14.6863H50.104C48.4827 16.8516 47.672 19.3103 47.672 22.0623C47.672 24.8143 48.4827 27.273 50.104 29.4383H48.408ZM50.8775 27.0703V26.6863L55.1975 22.1263C56.3602 20.8996 56.9415 19.817 56.9415 18.8783C56.9415 18.3343 56.7922 17.9076 56.4935 17.5983C56.1948 17.289 55.7735 17.1343 55.2295 17.1343C54.0455 17.1343 53.3628 17.8916 53.1815 19.4063H51.2295C51.3042 18.1583 51.6988 17.193 52.4135 16.5103C53.1282 15.817 54.0882 15.4703 55.2935 15.4703C56.4668 15.4703 57.3895 15.7796 58.0615 16.3983C58.7335 17.0063 59.0695 17.8223 59.0695 18.8463C59.0695 20.137 58.3228 21.5023 56.8295 22.9423L54.2855 25.4223H59.1495V27.0703H50.8775ZM64.9515 27.2303C63.6182 27.2303 62.5782 26.8943 61.8315 26.2223C61.0955 25.5503 60.7008 24.6543 60.6475 23.5343H62.5835C62.6475 24.1743 62.8662 24.6863 63.2395 25.0703C63.6128 25.4436 64.1675 25.6303 64.9035 25.6303C65.6288 25.6303 66.1728 25.4703 66.5355 25.1503C66.8982 24.8196 67.0795 24.361 67.0795 23.7743C67.0795 22.5263 66.3915 21.9023 65.0155 21.9023H64.1355V20.3823H64.9515C66.2208 20.3823 66.8555 19.8223 66.8555 18.7023C66.8555 18.2223 66.7008 17.833 66.3915 17.5343C66.0928 17.2356 65.6555 17.0863 65.0795 17.0863C64.4822 17.0863 63.9915 17.257 63.6075 17.5983C63.2342 17.929 63.0155 18.3876 62.9515 18.9743H61.0635C61.1168 17.9503 61.5062 17.113 62.2315 16.4623C62.9568 15.801 63.9168 15.4703 65.1115 15.4703C66.2742 15.4703 67.1915 15.7636 67.8635 16.3503C68.5462 16.937 68.8875 17.6676 68.8875 18.5423C68.8875 19.737 68.2688 20.569 67.0315 21.0383C67.7142 21.1983 68.2528 21.5183 68.6475 21.9983C69.0422 22.4676 69.2395 23.0703 69.2395 23.8063C69.2395 24.8623 68.8502 25.6996 68.0715 26.3183C67.3035 26.9263 66.2635 27.2303 64.9515 27.2303ZM75.0883 27.2143C73.9256 27.2143 73.0029 26.9423 72.3203 26.3983C71.6376 25.8543 71.2269 25.0863 71.0883 24.0943H73.0883C73.3123 25.0756 73.9683 25.5663 75.0563 25.5663C76.7203 25.5663 77.5683 24.2596 77.6003 21.6463C77.0136 22.6063 76.0749 23.0863 74.7843 23.0863C73.6643 23.0863 72.7523 22.7503 72.0483 22.0783C71.3443 21.3956 70.9923 20.4943 70.9923 19.3743C70.9923 18.201 71.3763 17.257 72.1443 16.5423C72.9123 15.817 73.9416 15.4543 75.2323 15.4543C76.7043 15.4543 77.8136 15.9183 78.5603 16.8463C79.3176 17.7743 79.6963 19.081 79.6963 20.7663V21.3583C79.6963 23.2356 79.2963 24.681 78.4963 25.6943C77.6963 26.7076 76.5603 27.2143 75.0883 27.2143ZM73.6643 20.9743C74.0589 21.3903 74.5816 21.5983 75.2323 21.5983C75.8829 21.5983 76.4109 21.401 76.8163 21.0063C77.2323 20.6116 77.4403 20.0996 77.4403 19.4703C77.4403 18.713 77.2376 18.121 76.8323 17.6943C76.4269 17.257 75.8883 17.0383 75.2163 17.0383C74.5763 17.0383 74.0589 17.2463 73.6643 17.6623C73.2803 18.0783 73.0883 18.6276 73.0883 19.3103C73.0883 20.0036 73.2803 20.5583 73.6643 20.9743ZM80.9939 29.4063C82.6045 27.2303 83.4099 24.7716 83.4099 22.0303C83.4099 19.289 82.6045 16.8303 80.9939 14.6543H82.6739C84.4445 16.7556 85.3299 19.2143 85.3299 22.0303C85.3299 24.8463 84.4445 27.305 82.6739 29.4063H80.9939ZM94.9498 27.2303C93.6591 27.2303 92.6724 26.9156 91.9898 26.2863C91.3071 25.657 90.9338 24.825 90.8698 23.7903H92.8538C92.9498 24.377 93.1471 24.825 93.4458 25.1343C93.7551 25.433 94.2511 25.5823 94.9338 25.5823C95.5844 25.5823 96.0911 25.3743 96.4538 24.9583C96.8164 24.5423 96.9978 23.977 96.9978 23.2623C96.9978 22.569 96.8111 22.0196 96.4378 21.6143C96.0644 21.209 95.5631 21.0063 94.9338 21.0063C93.9204 21.0063 93.1258 21.337 92.5498 21.9983H91.4618L91.5578 15.6303H98.5018V17.3103H93.1898L93.1738 20.4143C93.7284 19.7743 94.5498 19.4543 95.6378 19.4543C96.6831 19.4543 97.5311 19.801 98.1818 20.4943C98.8324 21.177 99.1578 22.1103 99.1578 23.2943C99.1578 24.489 98.7684 25.4436 97.9898 26.1583C97.2111 26.873 96.1978 27.2303 94.9498 27.2303ZM104.728 27.2303C103.437 27.2303 102.451 26.9156 101.768 26.2863C101.085 25.657 100.712 24.825 100.648 23.7903H102.632C102.728 24.377 102.925 24.825 103.224 25.1343C103.533 25.433 104.029 25.5823 104.712 25.5823C105.363 25.5823 105.869 25.3743 106.232 24.9583C106.595 24.5423 106.776 23.977 106.776 23.2623C106.776 22.569 106.589 22.0196 106.216 21.6143C105.843 21.209 105.341 21.0063 104.712 21.0063C103.699 21.0063 102.904 21.337 102.328 21.9983H101.24L101.336 15.6303H108.28V17.3103H102.968L102.952 20.4143C103.507 19.7743 104.328 19.4543 105.416 19.4543C106.461 19.4543 107.309 19.801 107.96 20.4943C108.611 21.177 108.936 22.1103 108.936 23.2943C108.936 24.489 108.547 25.4436 107.768 26.1583C106.989 26.873 105.976 27.2303 104.728 27.2303ZM114.506 27.2303C113.215 27.2303 112.229 26.9156 111.546 26.2863C110.863 25.657 110.49 24.825 110.426 23.7903H112.41C112.506 24.377 112.703 24.825 113.002 25.1343C113.311 25.433 113.807 25.5823 114.49 25.5823C115.141 25.5823 115.647 25.3743 116.01 24.9583C116.373 24.5423 116.554 23.977 116.554 23.2623C116.554 22.569 116.367 22.0196 115.994 21.6143C115.621 21.209 115.119 21.0063 114.49 21.0063C113.477 21.0063 112.682 21.337 112.106 21.9983H111.018L111.114 15.6303H118.058V17.3103H112.746L112.73 20.4143C113.285 19.7743 114.106 19.4543 115.194 19.4543C116.239 19.4543 117.087 19.801 117.738 20.4943C118.389 21.177 118.714 22.1103 118.714 23.2943C118.714 24.489 118.325 25.4436 117.546 26.1583C116.767 26.873 115.754 27.2303 114.506 27.2303ZM120.602 22.6703V21.0223H124.89V22.6703H120.602ZM131.648 25.5343C133.387 25.5343 134.256 24.2223 134.256 21.5983V21.0383C134.256 19.8116 134.027 18.857 133.568 18.1743C133.11 17.481 132.459 17.1343 131.616 17.1343C130.752 17.1343 130.091 17.4703 129.632 18.1423C129.174 18.8143 128.944 19.785 128.944 21.0543V21.6303C128.944 22.9103 129.179 23.881 129.648 24.5423C130.118 25.2036 130.784 25.5343 131.648 25.5343ZM131.6 27.2303C130.139 27.2303 128.971 26.729 128.096 25.7263C127.232 24.7236 126.8 23.3636 126.8 21.6463V21.0703C126.8 19.353 127.238 17.993 128.112 16.9903C128.987 15.977 130.15 15.4703 131.6 15.4703C133.062 15.4703 134.224 15.9716 135.088 16.9743C135.952 17.9663 136.384 19.3156 136.384 21.0223V21.5983C136.384 23.3263 135.958 24.697 135.104 25.7103C134.251 26.7236 133.083 27.2303 131.6 27.2303ZM140.331 27.0703V17.7423L137.915 19.3903V17.5183L140.571 15.6303H142.475V27.0703H140.331ZM149.97 25.5343C151.709 25.5343 152.578 24.2223 152.578 21.5983V21.0383C152.578 19.8116 152.349 18.857 151.89 18.1743C151.432 17.481 150.781 17.1343 149.938 17.1343C149.074 17.1343 148.413 17.4703 147.954 18.1423C147.496 18.8143 147.266 19.785 147.266 21.0543V21.6303C147.266 22.9103 147.501 23.881 147.97 24.5423C148.44 25.2036 149.106 25.5343 149.97 25.5343ZM149.922 27.2303C148.461 27.2303 147.293 26.729 146.418 25.7263C145.554 24.7236 145.122 23.3636 145.122 21.6463V21.0703C145.122 19.353 145.56 17.993 146.434 16.9903C147.309 15.977 148.472 15.4703 149.922 15.4703C151.384 15.4703 152.546 15.9716 153.41 16.9743C154.274 17.9663 154.706 19.3156 154.706 21.0223V21.5983C154.706 23.3263 154.28 24.697 153.426 25.7103C152.573 26.7236 151.405 27.2303 149.922 27.2303ZM160.593 27.2303C159.387 27.2303 158.369 26.9316 157.537 26.3343C156.715 25.737 156.305 24.905 156.305 23.8383C156.305 23.1343 156.497 22.5316 156.881 22.0303C157.265 21.529 157.787 21.161 158.449 20.9263C157.318 20.4783 156.753 19.6836 156.753 18.5423C156.753 17.6143 157.131 16.873 157.889 16.3183C158.646 15.753 159.547 15.4703 160.593 15.4703C161.659 15.4703 162.561 15.7476 163.297 16.3023C164.043 16.857 164.417 17.593 164.417 18.5103C164.417 19.6196 163.851 20.4196 162.721 20.9103C163.403 21.1556 163.926 21.5236 164.289 22.0143C164.662 22.4943 164.849 23.081 164.849 23.7743C164.849 24.8623 164.443 25.7103 163.633 26.3183C162.822 26.9263 161.809 27.2303 160.593 27.2303ZM160.593 25.6303C161.222 25.6303 161.734 25.4543 162.129 25.1023C162.523 24.7503 162.721 24.265 162.721 23.6463C162.721 23.0383 162.523 22.5636 162.129 22.2223C161.734 21.8703 161.227 21.6943 160.609 21.6943C160.001 21.6943 159.489 21.8703 159.073 22.2223C158.657 22.5636 158.449 23.0436 158.449 23.6623C158.449 24.281 158.651 24.7663 159.057 25.1183C159.473 25.4596 159.985 25.6303 160.593 25.6303ZM160.625 20.3023C161.158 20.3023 161.585 20.153 161.905 19.8543C162.235 19.5556 162.401 19.1503 162.401 18.6383C162.401 18.1583 162.23 17.769 161.889 17.4703C161.547 17.161 161.115 17.0063 160.593 17.0063C160.07 17.0063 159.638 17.1556 159.297 17.4543C158.955 17.753 158.785 18.153 158.785 18.6543C158.785 19.1556 158.961 19.5556 159.313 19.8543C159.675 20.153 160.113 20.3023 160.625 20.3023Z" fill="white"/>
</g>
<defs>
<clipPath id="clip0_62_2981">
<rect width="176" height="44" fill="white" transform="translate(0 0.0703125)"/>
</clipPath>
</defs>
</svg>
