<svg width="319" height="47" viewBox="0 0 319 47" fill="none" xmlns="http://www.w3.org/2000/svg">
<g clip-path="url(#clip0_62_2976)">
<path d="M23 26.9036C27.2282 26.9036 30.6667 23.4651 30.6667 19.237C30.6667 15.0088 27.2282 11.5703 23 11.5703C18.7719 11.5703 15.3334 15.0088 15.3334 19.237C15.3334 23.4651 18.7719 26.9036 23 26.9036ZM23 15.4036C25.1141 15.4036 26.8334 17.1229 26.8334 19.237C26.8334 21.3511 25.1141 23.0703 23 23.0703C20.886 23.0703 19.1667 21.3511 19.1667 19.237C19.1667 17.1229 20.886 15.4036 23 15.4036Z" fill="black"/>
<path d="M21.8885 41.8806C22.2129 42.1123 22.6015 42.2368 23.0001 42.2368C23.3987 42.2368 23.7874 42.1123 24.1118 41.8806C24.6945 41.4686 38.389 31.5805 38.3335 19.2371C38.3335 10.7827 31.4545 3.90381 23.0001 3.90381C14.5457 3.90381 7.66679 10.7827 7.66679 19.2276C7.61121 31.5805 21.3058 41.4686 21.8885 41.8806ZM23.0001 7.73714C29.3424 7.73714 34.5001 12.8949 34.5001 19.2467C34.5404 27.7529 26.0898 35.3908 23.0001 37.8959C19.9124 35.3889 11.4599 27.7491 11.5001 19.2371C11.5001 12.8949 16.6579 7.73714 23.0001 7.73714Z" fill="white"/>
<path d="M56.112 28.0703L59.792 18.3583H54.464V16.6303H62.464V16.8863L58.304 28.0703H56.112ZM67.9538 28.0703V25.7503H62.2897V24.9983L67.3457 16.6303H70.0177V24.1663H71.5538V25.7503H70.0177V28.0703H67.9538ZM64.5617 24.1663H67.9858V18.2463L64.5617 24.1663ZM77.2677 28.2303C76.0624 28.2303 75.0437 27.9316 74.2117 27.3343C73.3904 26.737 72.9797 25.905 72.9797 24.8383C72.9797 24.1343 73.1717 23.5316 73.5557 23.0303C73.9397 22.529 74.4624 22.161 75.1237 21.9263C73.9931 21.4783 73.4277 20.6836 73.4277 19.5423C73.4277 18.6143 73.8064 17.873 74.5637 17.3183C75.3211 16.753 76.2224 16.4703 77.2677 16.4703C78.3344 16.4703 79.2358 16.7476 79.9717 17.3023C80.7184 17.857 81.0918 18.593 81.0918 19.5103C81.0918 20.6196 80.5264 21.4196 79.3958 21.9103C80.0784 22.1556 80.6011 22.5236 80.9637 23.0143C81.3371 23.4943 81.5238 24.081 81.5238 24.7743C81.5238 25.8623 81.1184 26.7103 80.3077 27.3183C79.4971 27.9263 78.4838 28.2303 77.2677 28.2303ZM77.2677 26.6303C77.8971 26.6303 78.4091 26.4543 78.8038 26.1023C79.1984 25.7503 79.3958 25.265 79.3958 24.6463C79.3958 24.0383 79.1984 23.5636 78.8038 23.2223C78.4091 22.8703 77.9024 22.6943 77.2838 22.6943C76.6757 22.6943 76.1637 22.8703 75.7477 23.2223C75.3317 23.5636 75.1237 24.0436 75.1237 24.6623C75.1237 25.281 75.3264 25.7663 75.7317 26.1183C76.1477 26.4596 76.6597 26.6303 77.2677 26.6303ZM77.2997 21.3023C77.8331 21.3023 78.2598 21.153 78.5798 20.8543C78.9104 20.5556 79.0757 20.1503 79.0757 19.6383C79.0757 19.1583 78.9051 18.769 78.5637 18.4703C78.2224 18.161 77.7904 18.0063 77.2677 18.0063C76.7451 18.0063 76.3131 18.1556 75.9717 18.4543C75.6304 18.753 75.4597 19.153 75.4597 19.6543C75.4597 20.1556 75.6357 20.5556 75.9877 20.8543C76.3504 21.153 76.7877 21.3023 77.2997 21.3023ZM87.9828 26.5343C89.7214 26.5343 90.5908 25.2223 90.5908 22.5983V22.0383C90.5908 20.8116 90.3614 19.857 89.9028 19.1743C89.4441 18.481 88.7934 18.1343 87.9508 18.1343C87.0868 18.1343 86.4254 18.4703 85.9668 19.1423C85.5081 19.8143 85.2788 20.785 85.2788 22.0543V22.6303C85.2788 23.9103 85.5134 24.881 85.9828 25.5423C86.4521 26.2036 87.1188 26.5343 87.9828 26.5343ZM87.9348 28.2303C86.4734 28.2303 85.3054 27.729 84.4308 26.7263C83.5668 25.7236 83.1348 24.3636 83.1348 22.6463V22.0703C83.1348 20.353 83.5721 18.993 84.4468 17.9903C85.3214 16.977 86.4841 16.4703 87.9348 16.4703C89.3961 16.4703 90.5588 16.9716 91.4228 17.9743C92.2868 18.9663 92.7188 20.3156 92.7188 22.0223V22.5983C92.7188 24.3263 92.2921 25.697 91.4388 26.7103C90.5854 27.7236 89.4174 28.2303 87.9348 28.2303ZM99.062 28.0703V16.6303H101.91L104.918 24.4383L107.862 16.6303H110.678V28.0703H108.55V19.4303L105.142 28.0703H104.454L100.982 19.4303V28.0703H99.062ZM117.002 26.7263C117.717 26.7263 118.277 26.481 118.682 25.9903C119.098 25.489 119.306 24.8063 119.306 23.9423V23.8303C119.306 22.9663 119.098 22.289 118.682 21.7983C118.277 21.297 117.717 21.0463 117.002 21.0463C116.277 21.0463 115.706 21.2916 115.29 21.7823C114.885 22.273 114.682 22.9503 114.682 23.8143V23.9423C114.682 24.8063 114.885 25.489 115.29 25.9903C115.706 26.481 116.277 26.7263 117.002 26.7263ZM120.074 27.0463C119.264 27.8356 118.234 28.2303 116.986 28.2303C115.738 28.2303 114.709 27.8356 113.898 27.0463C113.098 26.257 112.698 25.233 112.698 23.9743V23.8463C112.698 22.5663 113.104 21.5263 113.914 20.7263C114.725 19.9263 115.754 19.5263 117.002 19.5263C118.24 19.5263 119.264 19.921 120.074 20.7103C120.885 21.4996 121.29 22.529 121.29 23.7983V23.9263C121.29 25.217 120.885 26.257 120.074 27.0463ZM126.904 28.2303C125.677 28.2303 124.664 27.8516 123.864 27.0943C123.074 26.3263 122.68 25.2916 122.68 23.9903V23.8623C122.68 22.561 123.085 21.5156 123.896 20.7263C124.706 19.9263 125.709 19.5263 126.904 19.5263C127.928 19.5263 128.792 19.7823 129.496 20.2943C130.21 20.7956 130.621 21.585 130.728 22.6623H128.856C128.706 21.6063 128.066 21.0783 126.936 21.0783C126.264 21.0783 125.714 21.3236 125.288 21.8143C124.872 22.305 124.664 22.977 124.664 23.8303V23.9583C124.664 24.8543 124.866 25.5423 125.272 26.0223C125.688 26.5023 126.258 26.7423 126.984 26.7423C127.517 26.7423 127.97 26.5876 128.344 26.2783C128.728 25.9583 128.946 25.5156 129 24.9503H130.776C130.701 25.9316 130.317 26.7263 129.624 27.3343C128.93 27.9316 128.024 28.2303 126.904 28.2303ZM132.643 28.0703V15.8303H134.579V23.3823L137.571 19.7023H139.683L136.435 23.5423L139.955 28.0703H137.715L134.579 23.9583V28.0703H132.643ZM141.531 28.0703V19.7023H143.467V28.0703H141.531ZM143.291 18.0063C143.067 18.2196 142.795 18.3263 142.475 18.3263C142.155 18.3263 141.883 18.2196 141.659 18.0063C141.435 17.793 141.323 17.5316 141.323 17.2223C141.323 16.9023 141.435 16.6356 141.659 16.4223C141.883 16.209 142.155 16.1023 142.475 16.1023C142.795 16.1023 143.067 16.209 143.291 16.4223C143.515 16.6356 143.627 16.9023 143.627 17.2223C143.627 17.5316 143.515 17.793 143.291 18.0063ZM146.027 28.0703V19.7023H147.963V21.0303C148.176 20.593 148.518 20.2356 148.987 19.9583C149.456 19.6703 150.016 19.5263 150.667 19.5263C151.552 19.5263 152.251 19.7983 152.763 20.3423C153.275 20.8756 153.531 21.697 153.531 22.8063V28.0703H151.595V22.9823C151.595 22.353 151.462 21.889 151.195 21.5903C150.928 21.2916 150.507 21.1423 149.931 21.1423C149.355 21.1423 148.88 21.3183 148.507 21.6703C148.144 22.0116 147.963 22.5023 147.963 23.1423V28.0703H146.027ZM159.529 31.1423C158.281 31.1423 157.327 30.8916 156.665 30.3903C156.004 29.889 155.615 29.2116 155.497 28.3583H157.449C157.62 29.233 158.308 29.6703 159.513 29.6703C161.071 29.6703 161.849 28.9183 161.849 27.4143V26.1823C161.604 26.609 161.231 26.977 160.729 27.2863C160.239 27.585 159.7 27.7343 159.113 27.7343C158.047 27.7343 157.161 27.3663 156.457 26.6303C155.753 25.8943 155.401 24.9343 155.401 23.7503V23.6383C155.401 22.465 155.759 21.489 156.473 20.7103C157.188 19.921 158.084 19.5263 159.161 19.5263C160.399 19.5263 161.295 20.0116 161.849 20.9823V19.7023H163.785V27.4463C163.775 28.6516 163.391 29.569 162.633 30.1983C161.887 30.8276 160.852 31.1423 159.529 31.1423ZM159.593 26.2463C160.276 26.2463 160.831 26.017 161.257 25.5583C161.695 25.0996 161.913 24.4756 161.913 23.6863V23.5743C161.913 22.785 161.711 22.1663 161.305 21.7183C160.9 21.2703 160.351 21.0463 159.657 21.0463C158.953 21.0463 158.399 21.281 157.993 21.7503C157.588 22.2196 157.385 22.8383 157.385 23.6063V23.7343C157.385 24.4916 157.593 25.0996 158.009 25.5583C158.425 26.017 158.953 26.2463 159.593 26.2463ZM170.958 28.2303C170.318 28.2303 169.758 28.0916 169.278 27.8143C168.809 27.537 168.457 27.1743 168.222 26.7263V28.0703H166.286V15.8303H168.222V21.0463C168.468 20.6196 168.836 20.2623 169.326 19.9743C169.828 19.6756 170.372 19.5263 170.958 19.5263C172.036 19.5263 172.921 19.9103 173.614 20.6783C174.318 21.4356 174.67 22.4703 174.67 23.7823V23.9103C174.67 25.233 174.324 26.2836 173.63 27.0623C172.948 27.841 172.057 28.2303 170.958 28.2303ZM170.478 26.6943C171.193 26.6943 171.737 26.4596 172.11 25.9903C172.494 25.521 172.686 24.8383 172.686 23.9423V23.8143C172.686 22.9183 172.478 22.2356 172.062 21.7663C171.657 21.2863 171.124 21.0463 170.462 21.0463C169.769 21.0463 169.209 21.2863 168.782 21.7663C168.366 22.2356 168.158 22.9183 168.158 23.8143V23.9423C168.158 24.849 168.361 25.537 168.766 26.0063C169.182 26.465 169.753 26.6943 170.478 26.6943ZM176.659 28.0703V19.7023H178.595V28.0703H176.659ZM178.419 18.0063C178.195 18.2196 177.923 18.3263 177.603 18.3263C177.283 18.3263 177.011 18.2196 176.787 18.0063C176.563 17.793 176.451 17.5316 176.451 17.2223C176.451 16.9023 176.563 16.6356 176.787 16.4223C177.011 16.209 177.283 16.1023 177.603 16.1023C177.923 16.1023 178.195 16.209 178.419 16.4223C178.643 16.6356 178.755 16.9023 178.755 17.2223C178.755 17.5316 178.643 17.793 178.419 18.0063ZM181.155 28.0703V19.7023H183.091V21.2703C183.646 20.1503 184.552 19.585 185.811 19.5743V21.3823C184.904 21.393 184.222 21.5743 183.763 21.9263C183.315 22.2783 183.091 22.8756 183.091 23.7183V28.0703H181.155ZM190.694 28.2303C189.606 28.2303 188.721 27.8623 188.038 27.1263C187.356 26.3796 187.014 25.345 187.014 24.0223V23.8943C187.014 22.5716 187.366 21.5156 188.07 20.7263C188.774 19.9263 189.676 19.5263 190.774 19.5263C192.012 19.5263 192.902 20.0116 193.446 20.9823V15.8303H195.382V28.0703H193.446V26.6623C193.212 27.0996 192.838 27.473 192.326 27.7823C191.825 28.081 191.281 28.2303 190.694 28.2303ZM191.174 26.6943C191.878 26.6943 192.444 26.4596 192.87 25.9903C193.297 25.521 193.51 24.833 193.51 23.9263V23.7983C193.51 22.8916 193.313 22.209 192.918 21.7503C192.524 21.281 191.969 21.0463 191.254 21.0463C190.54 21.0463 189.985 21.2916 189.59 21.7823C189.196 22.2623 188.998 22.9503 188.998 23.8463V23.9743C188.998 24.8596 189.196 25.537 189.59 26.0063C189.996 26.465 190.524 26.6943 191.174 26.6943ZM202.056 28.0703V16.6303H204.184V21.4943H209.32V16.6303H211.464V28.0703H209.32V23.2063H204.184V28.0703H202.056ZM214.159 28.0703V19.7023H216.095V28.0703H214.159ZM215.919 18.0063C215.695 18.2196 215.423 18.3263 215.103 18.3263C214.783 18.3263 214.511 18.2196 214.287 18.0063C214.063 17.793 213.951 17.5316 213.951 17.2223C213.951 16.9023 214.063 16.6356 214.287 16.4223C214.511 16.209 214.783 16.1023 215.103 16.1023C215.423 16.1023 215.695 16.209 215.919 16.4223C216.143 16.6356 216.255 16.9023 216.255 17.2223C216.255 17.5316 216.143 17.793 215.919 18.0063ZM218.703 28.0703V15.8303H220.639V28.0703H218.703ZM223.247 28.0703V15.8303H225.183V28.0703H223.247ZM234.555 28.2303C233.68 28.2303 232.982 27.969 232.459 27.4463C231.936 26.9236 231.675 26.129 231.675 25.0623V19.7023H233.611V24.8383C233.611 25.4676 233.744 25.9316 234.011 26.2303C234.278 26.529 234.694 26.6783 235.259 26.6783C235.814 26.6783 236.278 26.5023 236.651 26.1503C237.024 25.7983 237.211 25.3076 237.211 24.6783V19.7023H239.147V28.0703H237.211V26.7583C236.987 27.1956 236.646 27.553 236.187 27.8303C235.739 28.097 235.195 28.2303 234.555 28.2303ZM241.643 28.0703V19.7023H243.579V21.0303C243.792 20.593 244.133 20.2356 244.603 19.9583C245.072 19.6703 245.632 19.5263 246.283 19.5263C247.168 19.5263 247.867 19.7983 248.379 20.3423C248.891 20.8756 249.147 21.697 249.147 22.8063V28.0703H247.211V22.9823C247.211 22.353 247.077 21.889 246.811 21.5903C246.544 21.2916 246.123 21.1423 245.547 21.1423C244.971 21.1423 244.496 21.3183 244.123 21.6703C243.76 22.0116 243.579 22.5023 243.579 23.1423V28.0703H241.643ZM254.713 28.2303C253.625 28.2303 252.74 27.8623 252.057 27.1263C251.374 26.3796 251.033 25.345 251.033 24.0223V23.8943C251.033 22.5716 251.385 21.5156 252.089 20.7263C252.793 19.9263 253.694 19.5263 254.793 19.5263C256.03 19.5263 256.921 20.0116 257.465 20.9823V15.8303H259.401V28.0703H257.465V26.6623C257.23 27.0996 256.857 27.473 256.345 27.7823C255.844 28.081 255.3 28.2303 254.713 28.2303ZM255.193 26.6943C255.897 26.6943 256.462 26.4596 256.889 25.9903C257.316 25.521 257.529 24.833 257.529 23.9263V23.7983C257.529 22.8916 257.332 22.209 256.937 21.7503C256.542 21.281 255.988 21.0463 255.273 21.0463C254.558 21.0463 254.004 21.2916 253.609 21.7823C253.214 22.2623 253.017 22.9503 253.017 23.8463V23.9743C253.017 24.8596 253.214 25.537 253.609 26.0063C254.014 26.465 254.542 26.6943 255.193 26.6943ZM265.582 28.2303C264.334 28.2303 263.315 27.8463 262.526 27.0783C261.737 26.3103 261.342 25.2756 261.342 23.9743V23.8463C261.342 22.5663 261.731 21.5263 262.51 20.7263C263.299 19.9263 264.297 19.5263 265.502 19.5263C266.633 19.5263 267.571 19.8783 268.318 20.5823C269.075 21.2863 269.454 22.3423 269.454 23.7503V24.3103H263.326C263.358 25.1103 263.571 25.7236 263.966 26.1503C264.361 26.577 264.915 26.7903 265.63 26.7903C266.761 26.7903 267.401 26.3636 267.55 25.5103H269.422C269.283 26.385 268.878 27.057 268.206 27.5263C267.534 27.9956 266.659 28.2303 265.582 28.2303ZM263.358 23.0143H267.534C267.438 21.6276 266.761 20.9343 265.502 20.9343C264.926 20.9343 264.446 21.121 264.062 21.4943C263.689 21.857 263.454 22.3636 263.358 23.0143ZM271.719 28.0703V21.1583H270.583V19.7023H271.719V18.5823C271.719 17.665 271.959 16.9663 272.439 16.4863C272.919 15.9956 273.607 15.7503 274.503 15.7503C274.898 15.7503 275.25 15.7983 275.559 15.8943V17.3983C275.357 17.313 275.085 17.2703 274.743 17.2703C274.018 17.2703 273.655 17.681 273.655 18.5023V19.7023H275.559V21.1583H273.655V28.0703H271.719ZM277.209 28.0703V19.7023H279.145V28.0703H277.209ZM278.969 18.0063C278.745 18.2196 278.473 18.3263 278.153 18.3263C277.833 18.3263 277.561 18.2196 277.337 18.0063C277.113 17.793 277.001 17.5316 277.001 17.2223C277.001 16.9023 277.113 16.6356 277.337 16.4223C277.561 16.209 277.833 16.1023 278.153 16.1023C278.473 16.1023 278.745 16.209 278.969 16.4223C279.193 16.6356 279.305 16.9023 279.305 17.2223C279.305 17.5316 279.193 17.793 278.969 18.0063ZM281.705 28.0703V19.7023H283.641V21.0303C283.854 20.593 284.196 20.2356 284.665 19.9583C285.134 19.6703 285.694 19.5263 286.345 19.5263C287.23 19.5263 287.929 19.7983 288.441 20.3423C288.953 20.8756 289.209 21.697 289.209 22.8063V28.0703H287.273V22.9823C287.273 22.353 287.14 21.889 286.873 21.5903C286.606 21.2916 286.185 21.1423 285.609 21.1423C285.033 21.1423 284.558 21.3183 284.185 21.6703C283.822 22.0116 283.641 22.5023 283.641 23.1423V28.0703H281.705ZM295.32 28.2303C294.072 28.2303 293.053 27.8463 292.264 27.0783C291.474 26.3103 291.08 25.2756 291.08 23.9743V23.8463C291.08 22.5663 291.469 21.5263 292.248 20.7263C293.037 19.9263 294.034 19.5263 295.24 19.5263C296.37 19.5263 297.309 19.8783 298.056 20.5823C298.813 21.2863 299.192 22.3423 299.192 23.7503V24.3103H293.064C293.096 25.1103 293.309 25.7236 293.704 26.1503C294.098 26.577 294.653 26.7903 295.368 26.7903C296.498 26.7903 297.138 26.3636 297.288 25.5103H299.16C299.021 26.385 298.616 27.057 297.944 27.5263C297.272 27.9956 296.397 28.2303 295.32 28.2303ZM293.096 23.0143H297.272C297.176 21.6276 296.498 20.9343 295.24 20.9343C294.664 20.9343 294.184 21.121 293.8 21.4943C293.426 21.857 293.192 22.3636 293.096 23.0143ZM304.257 28.2303C303.169 28.2303 302.283 27.8623 301.601 27.1263C300.918 26.3796 300.577 25.345 300.577 24.0223V23.8943C300.577 22.5716 300.929 21.5156 301.633 20.7263C302.337 19.9263 303.238 19.5263 304.337 19.5263C305.574 19.5263 306.465 20.0116 307.009 20.9823V15.8303H308.945V28.0703H307.009V26.6623C306.774 27.0996 306.401 27.473 305.889 27.7823C305.387 28.081 304.843 28.2303 304.257 28.2303ZM304.737 26.6943C305.441 26.6943 306.006 26.4596 306.433 25.9903C306.859 25.521 307.073 24.833 307.073 23.9263V23.7983C307.073 22.8916 306.875 22.209 306.481 21.7503C306.086 21.281 305.531 21.0463 304.817 21.0463C304.102 21.0463 303.547 21.2916 303.153 21.7823C302.758 22.2623 302.561 22.9503 302.561 23.8463V23.9743C302.561 24.8596 302.758 25.537 303.153 26.0063C303.558 26.465 304.086 26.6943 304.737 26.6943Z" fill="white"/>
</g>
<defs>
<clipPath id="clip0_62_2976">
<rect width="319" height="46" fill="white" transform="translate(0 0.0703125)"/>
</clipPath>
</defs>
</svg>
